<svg width="200" height="200" viewBox="0 0 200 200" xmlns="http://www.w3.org/2000/svg">
  <defs>
    <style>
      .main-path {
        fill: #ADD8E6;
        stroke: #87CEFA;
        stroke-width: 1;
      }
    </style>
  </defs>
  <g transform="translate(100, 100)">
    <path class="main-path" d="M0,-60 l10,20 l20,0 l-10,20 l10,20 l-20,-10 l-20,10 l10,-20 l-10,-20 Z" />
    <path class="main-path" d="M0,-60 l10,20 l20,0 l-10,20 l10,20 l-20,-10 l-20,10 l10,-20 l-10,-20 Z" transform="rotate(60)" />
    <path class="main-path" d="M0,-60 l10,20 l20,0 l-10,20 l10,20 l-20,-10 l-20,10 l10,-20 l-10,-20 Z" transform="rotate(120)" />
    <path class="main-path" d="M0,-60 l10,20 l20,0 l-10,20 l10,20 l-20,-10 l-20,10 l10,-20 l-10,-20 Z" transform="rotate(180)" />
    <path class="main-path" d="M0,-60 l10,20 l20,0 l-10,20 l10,20 l-20,-10 l-20,10 l10,-20 l-10,-20 Z" transform="rotate(240)" />
    <path class="main-path" d="M0,-60 l10,20 l20,0 l-10,20 l10,20 l-20,-10 l-20,10 l10,-20 l-10,-20 Z" transform="rotate(300)" />
  </g>
</svg>
